<svg width="8" height="9" viewBox="0 0 8 9" fill="none" xmlns="http://www.w3.org/2000/svg">
<g clip-path="url(#clip0_315_246)">
<path d="M5.28401 3.4937H3.75468V0.500031H5.28401C6.10934 0.500031 6.78068 1.17136 6.78068 1.9967C6.78068 2.82203 6.10934 3.4937 5.28401 3.4937ZM4.24501 3.00336H5.28401C5.83901 3.00336 6.29034 2.5517 6.29034 1.99703C6.29034 1.44236 5.83868 0.990697 5.28401 0.990697H4.24501V3.00336ZM4.24501 3.4937H2.71601C1.89068 3.4937 1.21934 2.82236 1.21934 1.99703C1.21934 1.1717 1.89068 0.500031 2.71601 0.500031H4.24534V3.4937H4.24501ZM2.71601 0.990364C2.16101 0.990364 1.70968 1.44203 1.70968 1.9967C1.70968 2.55136 2.16101 3.00336 2.71601 3.00336H3.75501V0.990364H2.71601ZM4.24501 5.9967H2.71601C1.89068 5.9967 1.21934 5.32536 1.21934 4.50003C1.21934 3.6747 1.89068 3.00336 2.71601 3.00336H4.24534V5.9967H4.24501ZM2.71601 3.4937C2.16101 3.4937 1.70968 3.94536 1.70968 4.50003C1.70968 5.0547 2.16134 5.50636 2.71601 5.50636H3.75501V3.4937H2.71601ZM2.72401 8.50003C1.89434 8.50003 1.21901 7.8287 1.21901 7.00336C1.21901 6.17803 1.89034 5.5067 2.71568 5.5067H4.24501V6.98703C4.24501 7.82136 3.56268 8.50003 2.72401 8.50003ZM2.71601 5.9967C2.44922 5.99705 2.19346 6.10319 2.00481 6.29184C1.81617 6.48048 1.71003 6.73624 1.70968 7.00303C1.70968 7.55803 2.16468 8.00936 2.72434 8.00936C3.29268 8.00936 3.75534 7.5507 3.75534 6.9867V5.9967H2.71601ZM5.28401 5.9967H5.25134C4.42601 5.9967 3.75468 5.32536 3.75468 4.50003C3.75468 3.6747 4.42601 3.00336 5.25134 3.00336H5.28401C6.10934 3.00336 6.78068 3.6747 6.78068 4.50003C6.78068 5.32536 6.10934 5.9967 5.28401 5.9967ZM5.25168 3.4937C4.69668 3.4937 4.24534 3.94536 4.24534 4.50003C4.24534 5.0547 4.69701 5.50636 5.25168 5.50636H5.28434C5.83934 5.50636 6.29068 5.0547 6.29068 4.50003C6.29068 3.94536 5.83901 3.4937 5.28434 3.4937H5.25168Z" fill="#F24E1E"/>
</g>
<defs>
<clipPath id="clip0_315_246">
<rect width="8" height="8" fill="white" transform="translate(7.62939e-06 0.500031)"/>
</clipPath>
</defs>
</svg>
